<svg xmlns="http://www.w3.org/2000/svg" xmlns:xlink="http://www.w3.org/1999/xlink" width="500" zoomAndPan="magnify" viewBox="0 0 375 187.499995" height="250" preserveAspectRatio="xMidYMid meet" version="1.0"><defs><g/><clipPath id="7bd7d233e1"><path d="M 16 50 L 47 50 L 47 72 L 16 72 Z M 16 50 " clip-rule="nonzero"/></clipPath><clipPath id="3eddbf77ea"><path d="M 0.5 54.8125 L 44.109375 33.316406 L 58.988281 63.511719 L 15.378906 85.003906 Z M 0.5 54.8125 " clip-rule="nonzero"/></clipPath><clipPath id="47aee8ed0f"><path d="M 0.5 54.8125 L 44.109375 33.316406 L 58.988281 63.511719 L 15.378906 85.003906 Z M 0.5 54.8125 " clip-rule="nonzero"/></clipPath><clipPath id="a6ae45f343"><path d="M 5 40 L 49 40 L 49 84 L 5 84 Z M 5 40 " clip-rule="nonzero"/></clipPath><clipPath id="3e38640036"><path d="M 0.5 54.8125 L 44.109375 33.316406 L 58.988281 63.511719 L 15.378906 85.003906 Z M 0.5 54.8125 " clip-rule="nonzero"/></clipPath><clipPath id="9770f314ad"><path d="M 0.5 54.8125 L 44.109375 33.316406 L 58.988281 63.511719 L 15.378906 85.003906 Z M 0.5 54.8125 " clip-rule="nonzero"/></clipPath></defs><g fill="#204e5f" fill-opacity="1"><g transform="translate(16.158102, 121.534607)"><g><path d="M 0 0 L 32.609375 0 C 42.398438 0 49.042969 -6.207031 49.042969 -16.085938 C 49.042969 -25.875 42.398438 -32.171875 33.65625 -32.433594 C 40.914062 -35.582031 48.257812 -39.777344 48.257812 -48.605469 C 48.257812 -57.171875 39.6875 -59.796875 32.609375 -59.796875 L 0 -59.796875 L 0 -59.007812 C 3.757812 -59.183594 5.59375 -56.648438 5.59375 -47.382812 L 5.59375 -12.328125 C 5.59375 -3.058594 3.757812 -0.613281 0 -0.785156 Z M 13.898438 -21.070312 C 16.433594 -24.128906 20.804688 -27.1875 24.566406 -28.5 C 31.996094 -31.121094 38.902344 -27.277344 40.386719 -19.234375 C 41.960938 -11.277344 37.503906 -1.574219 27.539062 -1.574219 L 13.898438 -1.574219 Z M 13.898438 -58.222656 L 26.050781 -58.222656 C 32.171875 -58.222656 39.863281 -56.386719 39.863281 -48.957031 C 39.863281 -42.925781 35.753906 -38.902344 31.210938 -35.582031 C 25.527344 -31.472656 18.445312 -27.976562 13.898438 -23.429688 Z M 13.898438 -58.222656 "/></g></g></g><g fill="#204e5f" fill-opacity="1"><g transform="translate(67.90965, 121.534607)"><g><path d="M 5.59375 -29.285156 L 5.59375 -10.140625 C 5.59375 -4.371094 7.957031 0 14.25 0 C 20.71875 0 28.9375 -4.894531 34.445312 -10.054688 L 34.445312 -5.945312 C 34.445312 -2.449219 35.492188 0 39.425781 0 L 47.90625 0 L 47.90625 -0.785156 C 44.234375 -0.613281 42.398438 -2.886719 42.3125 -11.363281 L 42.222656 -47.46875 C 39.863281 -44.058594 33.917969 -41.699219 28.847656 -41.699219 L 28.847656 -40.914062 C 32.609375 -41.089844 34.445312 -38.554688 34.445312 -29.285156 L 34.445312 -12.238281 C 30.511719 -8.828125 24.742188 -4.371094 19.582031 -4.371094 C 16.085938 -4.457031 13.460938 -6.644531 13.460938 -11.890625 L 13.460938 -47.46875 C 11.101562 -44.058594 5.15625 -41.699219 0 -41.699219 L 0 -40.914062 C 3.757812 -41.089844 5.59375 -38.554688 5.59375 -29.285156 Z M 5.59375 -29.285156 "/></g></g></g><g fill="#204e5f" fill-opacity="1"><g transform="translate(118.087656, 121.534607)"><g><path d="M 39.601562 -12.328125 L 39.601562 -65.566406 C 37.242188 -62.15625 31.296875 -59.796875 26.140625 -59.796875 L 26.140625 -59.007812 C 29.898438 -59.183594 31.734375 -56.738281 31.734375 -47.46875 L 31.734375 -37.242188 C 28.410156 -42.835938 23.167969 -47.46875 16.261719 -47.46875 C 5.332031 -47.46875 0 -37.152344 0 -27.449219 C 0 -11.714844 9.265625 0 25.613281 0 L 45.195312 0 L 45.195312 -0.785156 C 41.4375 -0.613281 39.601562 -3.058594 39.601562 -12.328125 Z M 31.734375 -12.328125 C 31.734375 -4.632812 29.375 -1.574219 25.089844 -1.574219 C 20.71875 -1.574219 15.386719 -5.507812 12.238281 -10.925781 C 8.042969 -18.269531 5.683594 -30.945312 10.664062 -38.464844 C 15.648438 -45.894531 25.875 -46.160156 31.734375 -33.746094 Z M 31.734375 -12.328125 "/></g></g></g><g fill="#204e5f" fill-opacity="1"><g transform="translate(165.468279, 121.534607)"><g><path d="M 24.914062 -47.46875 C 11.890625 -47.46875 1.222656 -36.804688 1.222656 -23.691406 C 1.222656 -10.578125 11.890625 0 24.914062 0 C 36.105469 0 45.371094 -7.691406 47.996094 -18.007812 L 47.207031 -18.007812 C 44.234375 -9.441406 37.589844 -4.371094 30.597656 -3.585938 C 19.40625 -2.359375 11.363281 -11.714844 9.003906 -21.679688 C 8.480469 -23.867188 8.304688 -25.964844 8.21875 -28.0625 C 20.105469 -28.0625 32.347656 -28.0625 44.234375 -28.0625 C 44.324219 -37.417969 37.066406 -47.46875 24.914062 -47.46875 Z M 36.367188 -29.636719 L 8.304688 -29.636719 C 8.65625 -36.71875 12.0625 -42.660156 17.570312 -44.585938 C 25.441406 -47.382812 35.144531 -41.523438 36.367188 -29.636719 Z M 36.367188 -29.636719 "/></g></g></g><g fill="#204e5f" fill-opacity="1"><g transform="translate(216.433042, 121.534607)"><g><path d="M 54.550781 -3.585938 L 53.9375 -4.109375 C 51.753906 -2.359375 49.394531 -4.285156 48.257812 -5.945312 C 43.886719 -12.5 43.449219 -25.175781 40.738281 -34.96875 C 42.050781 -36.71875 43.625 -38.640625 45.460938 -40.214844 C 50.179688 -44.324219 55.511719 -44.933594 58.136719 -38.203125 C 61.980469 -28.5 61.71875 -16.960938 65.566406 -7.34375 C 67.226562 -3.234375 69.585938 0 74.921875 0 C 77.457031 0 79.992188 -1.050781 81.214844 -3.585938 L 80.601562 -4.109375 C 78.503906 -2.359375 76.054688 -4.285156 75.007812 -5.945312 C 69.761719 -13.8125 70.113281 -30.597656 65.480469 -40.476562 C 63.207031 -45.371094 59.445312 -47.46875 55.425781 -47.46875 C 49.128906 -47.46875 43.972656 -42.136719 40.125 -36.890625 C 39.6875 -38.203125 39.253906 -39.339844 38.726562 -40.476562 C 36.453125 -45.371094 32.78125 -47.46875 28.675781 -47.46875 C 22.378906 -47.46875 17.308594 -42.136719 13.460938 -36.980469 L 13.460938 -47.46875 C 11.101562 -44.058594 5.15625 -41.699219 0 -41.699219 L 0 -40.914062 C 3.757812 -41.089844 5.59375 -38.554688 5.59375 -29.285156 L 5.59375 -12.328125 C 5.59375 -3.058594 3.757812 -0.613281 0 -0.785156 L 0 0 L 19.058594 0 L 19.058594 -0.785156 C 15.296875 -0.613281 13.460938 -3.058594 13.460938 -12.328125 L 13.460938 -34.183594 C 14.863281 -36.191406 16.699219 -38.464844 18.707031 -40.214844 C 23.515625 -44.324219 28.847656 -44.933594 31.472656 -38.203125 C 35.230469 -28.5 34.96875 -16.960938 38.902344 -7.34375 C 40.5625 -3.234375 42.925781 0 48.167969 0 C 50.703125 0 53.238281 -1.050781 54.550781 -3.585938 Z M 54.550781 -3.585938 "/></g></g></g><g fill="#204e5f" fill-opacity="1"><g transform="translate(299.742533, 121.534607)"><g><path d="M 13.460938 -12.328125 L 13.460938 -47.46875 C 11.101562 -44.058594 5.15625 -41.699219 0 -41.699219 L 0 -40.914062 C 3.757812 -41.089844 5.59375 -38.554688 5.59375 -29.285156 L 5.59375 -12.328125 C 5.59375 -3.058594 3.757812 -0.613281 0 -0.785156 L 0 0 L 19.058594 0 L 19.058594 -0.785156 C 15.296875 -0.613281 13.460938 -3.058594 13.460938 -12.328125 Z M 9.527344 -59.796875 C 6.382812 -59.796875 3.757812 -57.261719 3.757812 -54.113281 C 3.757812 -50.878906 6.382812 -48.34375 9.527344 -48.34375 C 12.675781 -48.34375 15.296875 -50.878906 15.296875 -54.113281 C 15.296875 -57.261719 12.675781 -59.796875 9.527344 -59.796875 Z M 9.527344 -59.796875 "/></g></g></g><g fill="#204e5f" fill-opacity="1"><g transform="translate(320.985135, 121.534607)"><g><path d="M 15.386719 -23.691406 C 22.730469 -30.945312 29.636719 -28.761719 32.257812 -19.320312 C 34.269531 -12.238281 35.230469 0 45.023438 0 C 47.558594 0 50.09375 -1.050781 51.402344 -3.585938 L 50.792969 -4.109375 C 48.605469 -2.359375 46.246094 -4.285156 45.109375 -5.945312 C 42.050781 -10.492188 41.4375 -14.6875 40.386719 -19.144531 C 38.902344 -25.441406 36.542969 -31.910156 28.847656 -31.910156 C 26.402344 -31.910156 24.214844 -31.382812 22.203125 -30.683594 L 35.929688 -43.972656 C 37.589844 -45.632812 38.464844 -46.769531 41.175781 -46.683594 L 41.175781 -47.46875 L 26.488281 -47.46875 L 26.488281 -46.683594 C 28.9375 -46.769531 30.160156 -46.769531 31.121094 -45.023438 C 31.121094 -44.847656 31.296875 -44.585938 31.382812 -44.324219 C 31.910156 -43.011719 31.820312 -42.136719 30.773438 -41.089844 L 16.433594 -27.1875 C 15.386719 -26.140625 14.425781 -25.175781 13.460938 -24.128906 L 13.460938 -65.566406 C 11.101562 -62.15625 5.15625 -59.796875 0 -59.796875 L 0 -59.007812 C 3.757812 -59.183594 5.59375 -56.738281 5.59375 -47.46875 L 5.59375 -12.328125 C 5.59375 -3.058594 3.757812 -0.613281 0 -0.785156 L 0 0 L 19.058594 0 L 19.058594 -0.785156 C 15.296875 -0.613281 13.460938 -3.058594 13.460938 -12.328125 L 13.460938 -21.59375 C 14.074219 -22.292969 14.6875 -22.992188 15.386719 -23.691406 Z M 15.386719 -23.691406 "/></g></g></g><g clip-path="url(#7bd7d233e1)"><g clip-path="url(#3eddbf77ea)"><g clip-path="url(#47aee8ed0f)"><path fill="#204e5f" d="M 31.496094 61.640625 C 31.222656 61.773438 30.933594 61.867188 30.621094 61.910156 L 16.125 63.898438 C 16.1875 64.59375 16.449219 65.40625 16.992188 66.507812 C 18.035156 66.578125 19.292969 67.132812 20.09375 68.761719 C 20.585938 69.757812 20.441406 70.722656 20.246094 71.410156 C 23.148438 72.640625 28.992188 71.675781 34.988281 68.722656 C 42.546875 64.996094 47.46875 59.535156 45.984375 56.523438 C 45.65625 55.859375 44.316406 53.144531 43.003906 50.480469 L 32.242188 61.113281 C 32.019531 61.328125 31.769531 61.503906 31.496094 61.640625 Z M 31.496094 61.640625 " fill-opacity="1" fill-rule="nonzero"/></g></g></g><g clip-path="url(#a6ae45f343)"><g clip-path="url(#3e38640036)"><g clip-path="url(#9770f314ad)"><path fill="#204e5f" d="M 46.988281 40.628906 L 23.09375 43.90625 C 22.886719 43.9375 22.703125 44.03125 22.554688 44.175781 L 5.398438 61.125 C 5.109375 61.414062 5.03125 61.855469 5.214844 62.222656 C 5.394531 62.589844 5.792969 62.800781 6.199219 62.746094 L 11.675781 61.992188 C 11.210938 63.78125 11.453125 65.859375 12.640625 68.851562 C 12.070312 69.570312 11.914062 70.574219 12.34375 71.453125 C 12.785156 72.347656 13.699219 72.84375 14.632812 72.808594 C 16.832031 78.957031 14.300781 82.613281 14.546875 83.113281 C 14.671875 83.363281 18.089844 83.488281 18.730469 83.175781 C 19.722656 82.683594 21.273438 79.832031 19.484375 76.199219 C 18.429688 74.058594 17.441406 72.539062 16.671875 71.492188 C 17.023438 70.824219 17.101562 70.019531 16.742188 69.285156 C 16.347656 68.488281 15.574219 68.042969 14.746094 67.972656 C 12.765625 63.042969 13.84375 61.527344 16.671875 58.300781 C 16.957031 57.984375 17.496094 57.382812 17.804688 57.03125 C 18.359375 56.398438 18.867188 55.832031 19.351562 55.292969 C 20.925781 53.550781 22.269531 52.113281 23.300781 51.03125 C 24.4375 49.859375 24.96875 49.375 24.988281 49.355469 C 25.429688 48.917969 26.15625 48.914062 26.605469 49.363281 C 27.046875 49.808594 27.046875 50.53125 26.597656 50.980469 C 26.5625 51.011719 24.5 52.882812 19.523438 58.542969 C 19.203125 58.90625 18.894531 59.242188 18.601562 59.566406 C 18.003906 60.222656 17.507812 60.761719 17.109375 61.25 L 30.089844 59.46875 C 30.195312 59.453125 30.289062 59.421875 30.382812 59.378906 C 30.476562 59.332031 30.554688 59.273438 30.628906 59.199219 L 47.785156 42.25 C 48.078125 41.960938 48.152344 41.519531 47.96875 41.152344 C 47.789062 40.785156 47.394531 40.574219 46.988281 40.628906 Z M 46.988281 40.628906 " fill-opacity="1" fill-rule="nonzero"/></g></g></g></svg>